# xmcd
#
# Track frame offsets:
#       150
#       19760
#       39306
#       57030
#       80997
#       101826
#       125492
#       144384
#       163060
#       184967
#       204083
#       217995
#       236646
#       259700
#
# Disc length: 4287 seconds
#
# Revision: 5
# Processed by: cddbd v1.5.2PL0 Copyright (c) Steve Scherf et al.
# Submitted via: CD-DA_X-Tractor v0.24
#
DISCID=c210bd0e
DTITLE=Keb' Mo' - Slow Down
DYEAR=1998
DGENRE=Blues
TTITLE0=Muddy Water
TTITLE1=I Was Wrong
TTITLE2=Everything I Need
TTITLE3=Henry
TTITLE4=Soon As I Get Paid
TTITLE5=A Better Man
TTITLE6=I Don't Know
TTITLE7=A Letter To Tracy
TTITLE8=Slow Down
TTITLE9=Rainmaker
TTITLE10=Love in Vain
TTITLE11=God Trying to Get Your Attention
TTITLE12=I'm Telling You Now
TTITLE13=Untitled
EXTD=
EXTT0=
EXTT1=
EXTT2=
EXTT3=
EXTT4=
EXTT5=
EXTT6=
EXTT7=
EXTT8=
EXTT9=
EXTT10=
EXTT11=
EXTT12=
EXTT13=
PLAYORDER=
